<?xml version="1.0" encoding="UTF-8"?>
<!DOCTYPE svg PUBLIC "-//W3C//DTD SVG 1.1//EN" "http://www.w3.org/Graphics/SVG/1.1/DTD/svg11.dtd">
<svg version="1.1" xmlns="http://www.w3.org/2000/svg" xmlns:xlink="http://www.w3.org/1999/xlink" x="0" y="0" width="646.688" height="93.737" viewBox="0, 0, 1796.356, 260.382">
  <g id="Layer_1">
    <g>
      <path d="M132.3,-0 C133.2,0.2 134.1,0.4 135,0.6 C150.6,3.9 159,15.3 161.2,26.2 C164.3,41.9 155.1,57.5 139.8,62.3 C138.4,62.7 137,63.1 135.7,63.6 C133.1,64.6 131.4,66.6 130.8,69.4 C130.4,71.3 130.2,73.2 130,75.1 C128.8,85.2 127.6,95.2 126.3,105.3 C126,107.5 125.7,109.7 125.3,111.9 C125,113.5 125.5,114.7 126.9,115.5 C130.8,117.7 133.9,120.8 136.9,124 C138.4,125.6 139.9,127.1 141.4,128.6 C143.2,130.4 145.4,131.3 147.9,131.2 C153.7,131.1 159.6,130.9 165.4,130.8 C168.8,130.7 171.4,129.2 172.9,126.1 C174.1,123.6 175.3,121 176.4,118.5 C179.7,111.2 184.1,104.7 190.4,99.7 C197,94.4 204.6,91.6 213,90.6 C220.5,89.7 227.9,90.1 235.1,92.3 C246.9,95.8 255.3,103.5 261.2,114.2 C265.2,121.4 267.5,129 267.4,137.3 C267.4,141.2 266.9,145 265.5,148.6 C259.2,165.9 247.8,177.9 229.1,181.5 C209.3,185.3 188,176.3 178.4,158.1 C177.5,156.5 176.9,154.7 176.1,153.1 C175.2,151.3 174.2,149.4 173,147.7 C171.2,145.2 168.6,144 165.5,144.1 C161.1,144.2 156.7,144.5 152.3,144.9 C150.8,145 149.3,145.5 147.9,146 C145.4,146.9 143.5,148.8 142.7,151.3 C141.6,154.8 140.7,158.3 139.9,161.9 C139.5,163.6 140.6,164.9 141.6,166.2 C145.6,171.2 149.5,176.2 153.5,181.3 C157,185.8 160.5,190.2 163.8,194.8 C166.2,198.2 169.4,199.4 173.4,198.9 C177.6,198.4 181.7,198.3 185.8,199.4 C203.5,204.1 209.9,226.3 197.4,239.9 C190.5,247.4 181.8,249.9 172.1,247.2 C162.2,244.4 155.6,238.1 153.4,227.7 C152.5,223.3 153.1,219 154.7,214.8 C155,214.1 155.3,213.3 155.6,212.6 C156.8,209.5 156.3,206.6 154.3,204 C154.1,203.7 153.9,203.5 153.7,203.2 C147.2,194.8 140.6,186.5 134.1,178.1 C133.7,177.5 133.2,176.9 132.8,176.4 C129.9,173 127.3,172.4 123.2,174.1 C116,177.2 108.9,176.8 101.8,173.8 C100.3,173.2 98.8,172.6 97.3,172.1 C95.4,171.5 93.6,171.9 92.1,173.1 C91.2,173.8 90.4,174.6 89.7,175.4 C87.7,177.8 87.6,179.8 89.2,182.4 C89.6,183.2 90.1,183.9 90.7,184.6 C107.3,208.3 99.8,240.1 74.4,254.1 C49.1,268 19.1,257.6 6.6,235 C3.5,229.4 1.6,223.4 0.9,217.1 C0.7,215.5 0.3,214 -0,212.5 C-0,212 -0,211.5 -0,211.1 C0.4,209 0.7,206.9 1.1,204.8 C5.4,178.1 32.7,159.3 59.3,164.8 C63.8,165.7 68.3,166.9 72.4,169.2 C74.3,170.2 75.3,170.1 76.5,168.8 C78.3,166.9 80,164.9 81.8,162.9 C83.7,160.7 84.3,158.3 83.3,155.6 C81.7,151.4 81.1,147.1 81.6,142.7 C81.7,142.1 81.6,141.4 81.6,140.8 C81.5,136.6 80.6,135.5 76.6,134.3 C70.7,132.6 64.8,131 58.8,129.4 C52.6,127.7 46.9,128.9 42,133 C41.7,133.3 41.4,133.5 41.1,133.8 C34.6,139.2 27.3,140.6 19.3,138.3 C6.5,134.7 -1.5,122 1.1,109.6 C3.6,97.7 13.1,90.6 23.4,89.5 C36.6,88.1 46.2,95.9 49.8,105.5 C50.2,106.6 50.6,107.7 51.1,108.8 C52.7,112.2 55.4,114.3 59.1,115 C61.1,115.4 63,115.8 64.9,116.3 C69.9,117.5 74.8,118.8 79.8,119.9 C85,121.1 90.1,121.3 95.1,119.1 C99.2,117.3 103.2,115.3 107.2,113.4 C109.2,112.4 110.3,110.7 110.8,108.6 C111,107.7 111.1,106.7 111.3,105.8 C113,93 114.5,80.1 116.3,67.4 C116.8,64.1 115.8,62.1 113.1,60.4 C110.7,58.9 108.4,57.3 106.4,55.4 C99.5,49 95.8,41 96.1,31.5 C96.6,17.3 107.5,4.5 121.3,1.3 C122.8,1 124.2,0.7 125.7,0.4 C128.1,-0 130.2,-0 132.3,-0 z" fill="#000000"/>
      <path d="M1392.1,105.3 C1392,110.2 1390.9,115 1389.8,119.7 C1384.3,144.2 1378.7,168.7 1373.1,193.2 C1372.3,196.8 1371,200.2 1369.2,203.5 C1363.6,213.3 1352.9,215.7 1345,214.1 C1337.3,212.5 1332.7,205.6 1334.1,197.3 C1335,191.9 1336.2,186.5 1337.4,181.1 C1341.7,161.6 1346.1,142 1350.5,122.5 C1350.9,120.7 1351.1,118.9 1351.3,117.1 C1352.2,107.6 1342.9,101.9 1335.9,103.9 C1325.8,106.8 1317.2,112.2 1312.2,121.9 C1309.4,127.4 1307.9,133.2 1306.5,139.1 C1302.2,157.1 1297.9,175.1 1293.6,193.1 C1292.7,196.8 1291.4,200.3 1289.4,203.5 C1284.5,211.4 1274.9,215.8 1266,214.3 C1260,213.3 1255.4,208.3 1254.7,202.3 C1254.2,198.1 1255,194 1255.9,190 C1259.2,175.5 1262.7,161 1266,146.4 C1268,137.5 1269.6,128.6 1271.3,119.6 C1271.6,117.8 1271.6,115.9 1271.6,114.1 C1271.3,107.8 1267.1,103.7 1260.8,103.6 C1251.4,103.5 1243.4,106.9 1237.5,114.3 C1235.4,116.9 1233.7,119.8 1232.3,122.8 C1228,131.8 1225.4,141.3 1223.2,151 C1219.8,166.2 1216.4,181.4 1212.1,196.3 C1211.7,197.5 1211.4,198.8 1211,200 C1207.3,209.8 1197.1,215.8 1186.7,214.3 C1179.9,213.3 1175.3,208.2 1175.1,201.4 C1174.9,196.3 1175.8,191.4 1176.9,186.5 C1179.1,176.5 1181.5,166.6 1183.8,156.7 C1188.5,136.6 1193.1,116.4 1197.8,96.3 C1198.5,93.4 1199.5,90.5 1200.8,87.7 C1203.4,81.9 1207.8,77.9 1213.8,75.6 C1221,72.9 1227.9,75.4 1231.8,81.9 C1232.8,83.5 1233.4,85.4 1234.1,87.1 C1234.3,87.7 1234.5,88.3 1234.7,88.9 C1235.5,90.7 1236.3,90.9 1237.8,89.7 C1243.9,84.4 1251,80.7 1258.5,78 C1269.1,74.3 1279.9,73.6 1290.8,76.3 C1298.1,78.1 1303.8,82.3 1307.9,88.6 C1308.4,89.4 1308.9,90.2 1309.6,90.9 C1310.8,92.2 1311.9,92.4 1313.5,91.5 C1314.5,90.9 1315.5,90.1 1316.4,89.4 C1324.3,83.2 1333,78.3 1343,76.1 C1353,73.9 1363,73.8 1372.8,77.3 C1382.8,80.8 1389.3,87.7 1391.5,98.3 C1391.7,100.5 1391.8,102.9 1392.1,105.3 z" fill="#000000"/>
      <path d="M453.8,196.3 C452.7,197 451.9,197.6 451,198.2 C446,201.7 441.1,205.2 435.6,207.9 C424.8,213.2 413.4,215.6 401.4,214.2 C383.1,212.1 368.2,200.1 364.7,181.3 C363.3,173.6 363.1,165.7 363.6,157.9 C365.2,130.2 376.4,107.1 397.8,89.2 C409.2,79.7 422.5,75.2 437.3,74.8 C443.5,74.6 449.6,74.8 455.6,76.7 C463.4,79.2 470.1,83.4 475.3,89.8 C475.5,90 475.6,90.2 475.8,90.4 C476.4,91.1 477.1,91.6 478.1,91.4 C479.2,91.1 479.6,90.3 479.8,89.3 C480.7,84.9 481.7,80.4 482.7,76 C485.1,65.7 487.5,55.5 489.9,45.2 C490.8,41.4 492.1,37.9 494.3,34.7 C497.8,29.6 502.6,26.1 508.8,24.9 C513.8,23.9 518.2,25.2 522,28.5 C525.4,31.4 526.3,35.4 525.7,39.6 C525.1,43.5 524.3,47.4 523.4,51.3 C512.9,97 502.4,142.7 491.9,188.4 C491.1,191.9 490.1,195.3 489,198.8 C488,202.1 486.4,205.2 484.1,207.7 C479.3,212.9 473.3,215.2 466.2,214.4 C461.2,213.9 457.8,211 456,206.4 C455.2,204.4 455,202.2 454.5,200.1 C454.1,198.9 454,197.8 453.8,196.3 z M466.4,131.8 C466.7,127.2 466.5,123.8 465.7,120.4 C463.4,110.7 456.6,104.4 446.7,102.9 C437.9,101.6 430.1,104.2 423.3,109.7 C416.2,115.4 410.9,122.5 407.2,130.8 C403.9,138.4 402.2,146.4 401.5,154.7 C401.2,158.7 400.8,162.6 401.5,166.6 C402.9,175.1 408.8,183.6 419.5,184.7 C430.8,185.8 440.5,183 448.7,175 C454.8,169 459.2,161.9 462.1,154 C464.8,146.5 466.1,138.6 466.4,131.8 z" fill="#000000"/>
      <path d="M1482.7,101 C1471.2,100.8 1461.5,104.9 1453.6,113.3 C1450.7,116.4 1447.8,119.4 1444.8,122.5 C1442.1,125.2 1438.9,126.8 1435.1,127.3 C1428.7,128.2 1421.9,123.9 1420.5,117.9 C1419.7,114.6 1420.3,111.4 1421.6,108.3 C1424.7,100.7 1429.6,94.5 1436.1,89.6 C1444,83.5 1453.1,79.8 1462.6,77.2 C1471.1,74.9 1479.7,73.9 1488.5,74.6 C1493.4,75 1498.4,74.6 1503.4,74.8 C1510.5,75.1 1517.4,76.3 1523.9,79.1 C1526.6,80.3 1529.2,81.8 1531.5,83.5 C1537.2,87.8 1539.8,93.8 1540.7,100.7 C1541.6,107.3 1540.8,113.8 1539.9,120.3 C1538.1,133.1 1534.6,145.6 1531.3,158.1 C1528.3,169.6 1527.3,181.2 1528.5,193 C1529,198.3 1527.5,203 1523.9,206.9 C1520.8,210.2 1517.2,212.6 1512.9,213.9 C1506.6,215.9 1500.9,214.3 1496.7,209.2 C1495.5,207.7 1494.6,206 1493.6,204.4 C1492.8,203.2 1492.1,201.9 1491.2,200.8 C1489.8,199.1 1487.9,198.5 1485.8,199.3 C1484.2,199.9 1482.6,200.7 1481.1,201.6 C1472.4,206.8 1463.3,210.9 1453.3,213 C1442.8,215.2 1432.2,215.5 1421.7,212.9 C1408.8,209.7 1401.7,201 1399.1,188.3 C1397.4,180 1399.2,172.1 1403.3,164.8 C1411.2,150.5 1423.2,141.5 1439,137.7 C1446.8,135.8 1454.6,134.5 1462.5,132.8 C1473.1,130.6 1483.7,128.3 1494.4,126 C1495.8,125.7 1497.2,125.2 1498.5,124.7 C1501.2,123.6 1502.8,121.5 1502.8,118.6 C1502.8,115.4 1502.7,112.2 1502.3,109.1 C1501.8,105.6 1499.5,103.4 1496.1,102.6 C1491.6,101.6 1487.2,100.9 1482.7,101 z M1453.9,189.1 C1456.5,188.8 1458.7,188.7 1460.8,188.4 C1474.5,186.3 1484.7,179.1 1491.3,166.9 C1493.8,162.3 1495.3,157.3 1496,152.2 C1496.3,149.7 1495.4,148.8 1492.9,149.1 C1492.7,149.1 1492.4,149.2 1492.2,149.2 C1481.4,151.6 1470.5,153.9 1459.7,156.4 C1455.3,157.4 1451.1,158.7 1447.2,161 C1442.7,163.8 1439.4,167.6 1438,172.8 C1436.1,179.9 1439.7,186.3 1446.8,188.1 C1449.2,188.7 1451.8,188.8 1453.9,189.1 z" fill="#000000"/>
      <path d="M1717.1,123.3 C1717.9,122.7 1718.5,122.2 1719.1,121.8 C1733.9,109.5 1748.7,97.2 1763.6,84.9 C1765.9,83 1768.4,81.2 1770.9,79.4 C1774,77.2 1777.4,75.6 1781.2,75 C1783.5,74.6 1785.9,74.7 1788.1,75.5 C1795.4,78.2 1797.5,83.4 1795.8,90.6 C1794.9,94.5 1792.5,97.7 1789.7,100.5 C1786.8,103.3 1783.8,106.1 1780.6,108.6 C1775.1,112.9 1769.3,117 1763.7,121.2 C1762.4,122.2 1761,123.2 1759.8,124.4 C1758,126.2 1757.4,128.3 1758.2,130.8 C1758.6,132.1 1759.1,133.4 1759.6,134.6 C1766.5,151.4 1773.4,168.3 1780.2,185.1 C1785.9,199.2 1776.9,209.3 1768.3,213 C1761.4,216 1754.3,214.1 1749.7,208 C1748.8,206.8 1748,205.5 1747.4,204.1 C1742.6,194.5 1738.9,184.5 1735.3,174.4 C1733.4,169.1 1731.5,163.9 1729.5,158.7 C1729.1,157.5 1728.6,156.3 1728,155.2 C1726.9,153.2 1725.7,152.8 1723.6,153.7 C1715.9,157.1 1709.8,162.2 1706,169.9 C1704,174 1702.7,178.4 1701.7,182.8 C1701,186.1 1700.5,189.4 1699.8,192.7 C1699.1,196.2 1697.9,199.6 1696,202.7 C1691.9,209.3 1685.9,213.3 1678.2,214.4 C1673.9,215 1670,213.7 1666.5,211.1 C1664.6,209.7 1663.6,207.8 1662.9,205.6 C1661.8,201.9 1661.9,198.2 1662.7,194.5 C1665.7,181.4 1668.7,168.4 1671.8,155.3 C1679,124.2 1686.2,93.1 1693.4,62 C1694.7,56.3 1696,50.7 1697.5,45 C1698.5,41.2 1700.2,37.7 1702.3,34.4 C1707.7,26.1 1716.2,23.7 1724.6,25.5 C1729.8,26.6 1733,30.2 1733.9,35.5 C1734.6,39.8 1734.1,44.1 1733.1,48.3 C1728.8,67 1724.5,85.6 1720.2,104.3 C1719.2,108.7 1718.1,113.2 1717.1,117.6 C1716.4,119.4 1716.1,121.2 1717.1,123.3 z" fill="#000000"/>
      <path d="M883.9,154.2 C874.1,154.2 864.2,154.2 854.4,154.2 C852.2,154.2 850.1,154 847.9,154.2 C844.7,154.5 842.7,156.2 842.1,159.4 C839.9,171.2 844.8,186.6 862.4,188.9 C871.1,190 879.2,187.8 886.9,183.8 C892.3,181.1 897.1,177.5 901.9,173.9 C904.3,172.1 906.7,170.2 909.3,168.6 C913.6,166 918.2,165.1 923.1,166.3 C928.3,167.5 931,171.7 929.9,176.9 C928.6,183 925.4,188.2 920.8,192.3 C908,203.9 893.2,211.6 876,214.1 C861.4,216.2 847.2,214.5 833.2,209.9 C828.6,208.4 824.4,206.1 820.6,203.1 C811.7,196.2 806.7,187 805,176 C804,169.2 804.4,162.5 805.1,155.7 C806.1,145.4 808.4,135.4 812.4,125.8 C820.7,106.2 834.8,92.1 853.6,82.5 C865.1,76.6 877.3,73.6 890.3,73.8 C899.3,74 908.1,75.5 916.5,78.9 C931.3,84.8 939.7,95.9 942.6,111.3 C944.5,121 943.3,130.5 939.5,139.7 C936.2,147.7 930.2,152.1 921.8,153.3 C916.9,154 911.9,154.1 907,154.2 C899.4,154.4 891.6,154.2 883.9,154.2 z M876.9,132.2 C884.4,132.2 891.9,132.2 899.4,132.2 C900.4,132.2 901.3,132.1 902.3,132 C904.2,131.7 905.5,130.6 906.2,128.8 C906.5,128.1 906.7,127.3 906.9,126.5 C908.2,118.9 905.8,112.5 900.9,106.9 C898.8,104.4 896,102.9 892.8,102 C883,99.3 874,101.2 865.7,107 C858.2,112.3 853.2,119.4 849.8,127.9 C849.7,128.3 849.5,128.7 849.4,129 C849,130.7 849.5,131.6 851.2,131.9 C852.1,132.1 853.1,132.2 854.1,132.2 C861.7,132.2 869.3,132.2 876.9,132.2 z" fill="#000000"/>
      <path d="M602.7,154.2 C591.7,154.2 580.8,154.2 569.8,154.2 C568.7,154.2 567.6,154.2 566.5,154.3 C563.6,154.6 561.8,156.1 561.5,158.9 C560.6,167.5 561.9,175.7 568,182.3 C572.1,186.8 577.5,188.9 583.6,189.2 C590.7,189.7 597.4,188 603.8,185.1 C608.9,182.8 613.5,179.8 617.9,176.5 C620.7,174.5 623.4,172.3 626.1,170.3 C630,167.3 634.4,165.5 639.4,165.7 C639.8,165.7 640.2,165.7 640.6,165.8 C646.5,166.5 649.1,169.4 649.2,175.3 C649.3,179.7 647.7,183.6 645,187 C641.5,191.6 637.1,195.4 632.5,198.9 C622.3,206.6 610.7,211.2 598.1,213.2 C589,214.6 579.8,215.1 570.6,214.1 C557.7,212.7 546,208.4 536.6,199.1 C529.9,192.5 526,184.5 524.7,175.3 C522.8,162.4 524.4,149.8 528.1,137.4 C532.7,121.8 540.5,108.1 552.3,96.7 C562.3,87 574.4,80.8 587.8,77 C596.2,74.7 604.6,73.3 613.4,73.6 C623.7,74 633.5,76.6 642.4,81.9 C653.4,88.4 659.8,98.4 662.5,110.7 C664.7,120.5 663.7,130 659.7,139.3 C656.2,147.4 650,152.1 641.3,153.1 C635.3,153.8 629.2,153.9 623.1,154.1 C616.3,154.3 609.5,154.1 602.7,154.1 C602.7,154.3 602.7,154.2 602.7,154.2 z M596.6,132.3 C596.6,132.3 596.6,132.3 596.6,132.3 C604.6,132.3 612.6,132.3 620.6,132.3 C624,132.3 625.1,131.3 626.1,128.1 C629.4,117.1 621.9,104.3 610.7,101.7 C605.4,100.5 600,100.6 594.9,102.4 C582.6,106.6 574.6,115.3 569.9,127.2 C568.4,131.1 569.3,132.3 573.4,132.4 C581.1,132.3 588.8,132.3 596.6,132.3 z" fill="#000000"/>
      <path d="M1023.9,163.3 C1024.9,139.6 1031.9,118.1 1048.9,100.8 C1062,87.4 1077.7,78.6 1096.3,75.4 C1111.4,72.8 1126.2,74.1 1140.2,80.5 C1157.3,88.3 1166.3,102.1 1166.9,120.7 C1167.7,144.7 1160.5,166.4 1144.9,184.9 C1131.7,200.5 1114.8,209.8 1094.6,213.3 C1090.6,214 1086.5,214.4 1082.4,214.5 C1072.4,214.5 1062.5,214 1053.1,210 C1036.4,202.9 1027,190.3 1024.4,172.5 C1024.2,171.3 1024,170.1 1024,168.9 C1023.9,167 1023.9,165.2 1023.9,163.3 z M1129.4,129.9 C1129.4,128.7 1129.5,127.5 1129.4,126.3 C1129.1,121.8 1128.2,117.5 1126.1,113.4 C1123.2,107.8 1118.7,104.5 1112.6,103.5 C1112,103.4 1111.5,103.3 1110.9,103.2 C1099.2,101.4 1088.8,104.1 1080.4,112.7 C1066.3,127 1060.4,144.4 1061.9,164.3 C1062.2,168.9 1063.6,173.2 1066.1,177.2 C1068.6,181.2 1072,184.1 1076.7,185.2 C1082,186.5 1087.3,186.7 1092.6,185.7 C1100.2,184.2 1106.5,180.6 1111.7,174.9 C1123.3,162.3 1128.8,147 1129.4,129.9 z" fill="#000000"/>
      <path d="M726,168.3 C727.3,166.3 728.2,164.7 729.2,163.1 C743.9,138.8 758.5,114.6 773.2,90.3 C775.6,86.4 778.1,82.6 781.5,79.5 C785.5,75.8 790.2,74 795.8,74.6 C805,75.7 810.1,83.7 807.3,92.5 C806.7,94.2 805.9,95.9 804.9,97.5 C797.5,109.4 790.2,121.2 782.6,133 C768.7,154.8 754.8,176.6 740.7,198.3 C738.6,201.6 736.1,204.7 733.4,207.4 C726.9,213.9 718.8,215.6 709.9,213.7 C704.5,212.6 700.8,209.4 699.1,204.2 C698,201 697.4,197.7 696.8,194.4 C693.2,174.9 689.6,155.3 686.1,135.8 C684,123.9 682.1,112 680.1,100.2 C679.3,95.2 679.7,90.3 682.1,85.8 C685.7,79 691.5,75.3 699.1,74.7 C700.9,74.6 702.8,74.6 704.6,74.8 C709,75.2 712.1,77.5 713.4,81.8 C714,83.9 714.5,86 714.8,88.1 C717,103.3 719.1,118.4 721.2,133.6 C722.7,144.4 724.1,155.3 725.6,166.1 C725.6,166.7 725.8,167.2 726,168.3 z" fill="#000000"/>
      <path d="M1614.6,90.7 C1616.8,88.6 1618.7,86.8 1620.6,85 C1625.4,80.5 1630.9,77.2 1637.3,75.6 C1647.7,73 1657.4,75 1666.5,80.5 C1667.3,81 1668.1,81.6 1668.8,82.2 C1673.3,86.1 1674.7,91 1673.1,96.7 C1670.7,105.3 1663.1,111.1 1654.7,110.6 C1652.1,110.5 1649.5,109.7 1647,109 C1643.3,108 1639.6,107.1 1635.7,106.9 C1628.6,106.5 1622.8,109.2 1618.1,114.5 C1613,120.3 1609.6,127.1 1607,134.2 C1603.5,143.5 1601.2,153.1 1598.9,162.7 C1596.3,173.5 1593.7,184.3 1591.2,195.1 C1590.3,198.9 1588.8,202.6 1586.4,205.7 C1580.8,213 1573.3,215.7 1564.4,214.2 C1558.1,213.1 1554.2,208.2 1553.8,201.5 C1553.5,196.8 1554.3,192.3 1555.4,187.8 C1559.5,170.4 1563.6,153 1567.7,135.6 C1570.7,122.8 1573.8,110 1576.9,97.2 C1578,92.5 1579.8,88.1 1582.6,84.1 C1587.1,77.5 1593.5,74.7 1601.2,74.6 C1605.4,74.5 1608.6,76.5 1610.7,80 C1612.4,82.8 1613.3,85.8 1614.2,88.9 C1614.2,89.2 1614.3,89.7 1614.6,90.7 z" fill="#000000"/>
      <path d="M1011.1,24.8 C1011.8,24.9 1013,24.9 1014.3,25.1 C1023.2,26.7 1026.2,34.1 1025.5,41 C1024.7,49.2 1022.5,57.1 1020.6,65.1 C1016.7,81.7 1012.9,98.4 1009.1,115 C1003.2,140.5 997.3,166 991.3,191.4 C990.4,195.2 989.2,198.9 987.3,202.4 C982.6,210.9 974.3,215.3 964.8,214.2 C959.3,213.5 955.6,210.5 953.8,205.2 C952.6,201.5 952.8,197.8 953.6,194.1 C957.8,175.6 962.1,157.1 966.4,138.6 C973.5,107.8 980.7,76.9 987.9,46.1 C989,41.4 990.7,36.9 993.7,33.1 C998,27.6 1003.5,24.8 1011.1,24.8 z" fill="#000000"/>
    </g>
  </g>
</svg>
