<?xml version="1.0" encoding="utf-8"?>
<!-- Generator: Adobe Illustrator 25.0.0, SVG Export Plug-In . SVG Version: 6.00 Build 0)  -->
<svg version="1.1" id="Layer_1" xmlns="http://www.w3.org/2000/svg" xmlns:xlink="http://www.w3.org/1999/xlink" x="0px" y="0px"
	 viewBox="0 0 1920 1080" style="enable-background:new 0 0 1920 1080;" xml:space="preserve">
<g>
	<g>
		<path d="M194,410c0.9,0.2,1.8,0.4,2.7,0.6c15.6,3.3,24,14.7,26.2,25.6c3.1,15.7-6.1,31.3-21.4,36.1c-1.4,0.4-2.8,0.8-4.1,1.3
			c-2.6,1-4.3,3-4.9,5.8c-0.4,1.9-0.6,3.8-0.8,5.7c-1.2,10.1-2.4,20.1-3.7,30.2c-0.3,2.2-0.6,4.4-1,6.6c-0.3,1.6,0.2,2.8,1.6,3.6
			c3.9,2.2,7,5.3,10,8.5c1.5,1.6,3,3.1,4.5,4.6c1.8,1.8,4,2.7,6.5,2.6c5.8-0.1,11.7-0.3,17.5-0.4c3.4-0.1,6-1.6,7.5-4.7
			c1.2-2.5,2.4-5.1,3.5-7.6c3.3-7.3,7.7-13.8,14-18.8c6.6-5.3,14.2-8.1,22.6-9.1c7.5-0.9,14.9-0.5,22.1,1.7
			c11.8,3.5,20.2,11.2,26.1,21.9c4,7.2,6.3,14.8,6.2,23.1c0,3.9-0.5,7.7-1.9,11.3c-6.3,17.3-17.7,29.3-36.4,32.9
			c-19.8,3.8-41.1-5.2-50.7-23.4c-0.9-1.6-1.5-3.4-2.3-5c-0.9-1.8-1.9-3.7-3.1-5.4c-1.8-2.5-4.4-3.7-7.5-3.6
			c-4.4,0.1-8.8,0.4-13.2,0.8c-1.5,0.1-3,0.6-4.4,1.1c-2.5,0.9-4.4,2.8-5.2,5.3c-1.1,3.5-2,7-2.8,10.6c-0.4,1.7,0.7,3,1.7,4.3
			c4,5,7.9,10,11.9,15.1c3.5,4.5,7,8.9,10.3,13.5c2.4,3.4,5.6,4.6,9.6,4.1c4.2-0.5,8.3-0.6,12.4,0.5c17.7,4.7,24.1,26.9,11.6,40.5
			c-6.9,7.5-15.6,10-25.3,7.3c-9.9-2.8-16.5-9.1-18.7-19.5c-0.9-4.4-0.3-8.7,1.3-12.9c0.3-0.7,0.6-1.5,0.9-2.2
			c1.2-3.1,0.7-6-1.3-8.6c-0.2-0.3-0.4-0.5-0.6-0.8c-6.5-8.4-13.1-16.7-19.6-25.1c-0.4-0.6-0.9-1.2-1.3-1.7c-2.9-3.4-5.5-4-9.6-2.3
			c-7.2,3.1-14.3,2.7-21.4-0.3c-1.5-0.6-3-1.2-4.5-1.7c-1.9-0.6-3.7-0.2-5.2,1c-0.9,0.7-1.7,1.5-2.4,2.3c-2,2.4-2.1,4.4-0.5,7
			c0.4,0.8,0.9,1.5,1.5,2.2c16.6,23.7,9.1,55.5-16.3,69.5c-25.3,13.9-55.3,3.5-67.8-19.1c-3.1-5.6-5-11.6-5.7-17.9
			c-0.2-1.6-0.6-3.1-0.9-4.6c0-0.5,0-1,0-1.4c0.4-2.1,0.7-4.2,1.1-6.3c4.3-26.7,31.6-45.5,58.2-40c4.5,0.9,9,2.1,13.1,4.4
			c1.9,1,2.9,0.9,4.1-0.4c1.8-1.9,3.5-3.9,5.3-5.9c1.9-2.2,2.5-4.6,1.5-7.3c-1.6-4.2-2.2-8.5-1.7-12.9c0.1-0.6,0-1.3,0-1.9
			c-0.1-4.2-1-5.3-5-6.5c-5.9-1.7-11.8-3.3-17.8-4.9c-6.2-1.7-11.9-0.5-16.8,3.6c-0.3,0.3-0.6,0.5-0.9,0.8
			c-6.5,5.4-13.8,6.8-21.8,4.5c-12.8-3.6-20.8-16.3-18.2-28.7c2.5-11.9,12-19,22.3-20.1c13.2-1.4,22.8,6.4,26.4,16
			c0.4,1.1,0.8,2.2,1.3,3.3c1.6,3.4,4.3,5.5,8,6.2c2,0.4,3.9,0.8,5.8,1.3c5,1.2,9.9,2.5,14.9,3.6c5.2,1.2,10.3,1.4,15.3-0.8
			c4.1-1.8,8.1-3.8,12.1-5.7c2-1,3.1-2.7,3.6-4.8c0.2-0.9,0.3-1.9,0.5-2.8c1.7-12.8,3.2-25.7,5-38.4c0.5-3.3-0.5-5.3-3.2-7
			c-2.4-1.5-4.7-3.1-6.7-5c-6.9-6.4-10.6-14.4-10.3-23.9c0.5-14.2,11.4-27,25.2-30.2c1.5-0.3,2.9-0.6,4.4-0.9
			C189.8,410,191.9,410,194,410z"/>
		<path d="M1453.8,515.3c-0.1,4.9-1.2,9.7-2.3,14.4c-5.5,24.5-11.1,49-16.7,73.5c-0.8,3.6-2.1,7-3.9,10.3
			c-5.6,9.8-16.3,12.2-24.2,10.6c-7.7-1.6-12.3-8.5-10.9-16.8c0.9-5.4,2.1-10.8,3.3-16.2c4.3-19.5,8.7-39.1,13.1-58.6
			c0.4-1.8,0.6-3.6,0.8-5.4c0.9-9.5-8.4-15.2-15.4-13.2c-10.1,2.9-18.7,8.3-23.7,18c-2.8,5.5-4.3,11.3-5.7,17.2
			c-4.3,18-8.6,36-12.9,54c-0.9,3.7-2.2,7.2-4.2,10.4c-4.9,7.9-14.5,12.3-23.4,10.8c-6-1-10.6-6-11.3-12c-0.5-4.2,0.3-8.3,1.2-12.3
			c3.3-14.5,6.8-29,10.1-43.6c2-8.9,3.6-17.8,5.3-26.8c0.3-1.8,0.3-3.7,0.3-5.5c-0.3-6.3-4.5-10.4-10.8-10.5
			c-9.4-0.1-17.4,3.3-23.3,10.7c-2.1,2.6-3.8,5.5-5.2,8.5c-4.3,9-6.9,18.5-9.1,28.2c-3.4,15.2-6.8,30.4-11.1,45.3
			c-0.4,1.2-0.7,2.5-1.1,3.7c-3.7,9.8-13.9,15.8-24.3,14.3c-6.8-1-11.4-6.1-11.6-12.9c-0.2-5.1,0.7-10,1.8-14.9
			c2.2-10,4.6-19.9,6.9-29.8c4.7-20.1,9.3-40.3,14-60.4c0.7-2.9,1.7-5.8,3-8.6c2.6-5.8,7-9.8,13-12.1c7.2-2.7,14.1-0.2,18,6.3
			c1,1.6,1.6,3.5,2.3,5.2c0.2,0.6,0.4,1.2,0.6,1.8c0.8,1.8,1.6,2,3.1,0.8c6.1-5.3,13.2-9,20.7-11.7c10.6-3.7,21.4-4.4,32.3-1.7
			c7.3,1.8,13,6,17.1,12.3c0.5,0.8,1,1.6,1.7,2.3c1.2,1.3,2.3,1.5,3.9,0.6c1-0.6,2-1.4,2.9-2.1c7.9-6.2,16.6-11.1,26.6-13.3
			c10-2.2,20-2.3,29.8,1.2c10,3.5,16.5,10.4,18.7,21C1453.4,510.5,1453.5,512.9,1453.8,515.3z"/>
		<path d="M515.5,606.3c-1.1,0.7-1.9,1.3-2.8,1.9c-5,3.5-9.9,7-15.4,9.7c-10.8,5.3-22.2,7.7-34.2,6.3c-18.3-2.1-33.2-14.1-36.7-32.9
			c-1.4-7.7-1.6-15.6-1.1-23.4c1.6-27.7,12.8-50.8,34.2-68.7c11.4-9.5,24.7-14,39.5-14.4c6.2-0.2,12.3,0,18.3,1.9
			c7.8,2.5,14.5,6.7,19.7,13.1c0.2,0.2,0.3,0.4,0.5,0.6c0.6,0.7,1.3,1.2,2.3,1c1.1-0.3,1.5-1.1,1.7-2.1c0.9-4.4,1.9-8.9,2.9-13.3
			c2.4-10.3,4.8-20.5,7.2-30.8c0.9-3.8,2.2-7.3,4.4-10.5c3.5-5.1,8.3-8.6,14.5-9.8c5-1,9.4,0.3,13.2,3.6c3.4,2.9,4.3,6.9,3.7,11.1
			c-0.6,3.9-1.4,7.8-2.3,11.7c-10.5,45.7-21,91.4-31.5,137.1c-0.8,3.5-1.8,6.9-2.9,10.4c-1,3.3-2.6,6.4-4.9,8.9
			c-4.8,5.2-10.8,7.5-17.9,6.7c-5-0.5-8.4-3.4-10.2-8c-0.8-2-1-4.2-1.5-6.3C515.8,608.9,515.7,607.8,515.5,606.3z M528.1,541.8
			c0.3-4.6,0.1-8-0.7-11.4c-2.3-9.7-9.1-16-19-17.5c-8.8-1.3-16.6,1.3-23.4,6.8c-7.1,5.7-12.4,12.8-16.1,21.1
			c-3.3,7.6-5,15.6-5.7,23.9c-0.3,4-0.7,7.9,0,11.9c1.4,8.5,7.3,17,18,18.1c11.3,1.1,21-1.7,29.2-9.7c6.1-6,10.5-13.1,13.4-21
			C526.5,556.5,527.8,548.6,528.1,541.8z"/>
		<path d="M1544.4,511c-11.5-0.2-21.2,3.9-29.1,12.3c-2.9,3.1-5.8,6.1-8.8,9.2c-2.7,2.7-5.9,4.3-9.7,4.8c-6.4,0.9-13.2-3.4-14.6-9.4
			c-0.8-3.3-0.2-6.5,1.1-9.6c3.1-7.6,8-13.8,14.5-18.7c7.9-6.1,17-9.8,26.5-12.4c8.5-2.3,17.1-3.3,25.9-2.6c4.9,0.4,9.9,0,14.9,0.2
			c7.1,0.3,14,1.5,20.5,4.3c2.7,1.2,5.3,2.7,7.6,4.4c5.7,4.3,8.3,10.3,9.2,17.2c0.9,6.6,0.1,13.1-0.8,19.6
			c-1.8,12.8-5.3,25.3-8.6,37.8c-3,11.5-4,23.1-2.8,34.9c0.5,5.3-1,10-4.6,13.9c-3.1,3.3-6.7,5.7-11,7c-6.3,2-12,0.4-16.2-4.7
			c-1.2-1.5-2.1-3.2-3.1-4.8c-0.8-1.2-1.5-2.5-2.4-3.6c-1.4-1.7-3.3-2.3-5.4-1.5c-1.6,0.6-3.2,1.4-4.7,2.3
			c-8.7,5.2-17.8,9.3-27.8,11.4c-10.5,2.2-21.1,2.5-31.6-0.1c-12.9-3.2-20-11.9-22.6-24.6c-1.7-8.3,0.1-16.2,4.2-23.5
			c7.9-14.3,19.9-23.3,35.7-27.1c7.8-1.9,15.6-3.2,23.5-4.9c10.6-2.2,21.2-4.5,31.9-6.8c1.4-0.3,2.8-0.8,4.1-1.3
			c2.7-1.1,4.3-3.2,4.3-6.1c0-3.2-0.1-6.4-0.5-9.5c-0.5-3.5-2.8-5.7-6.2-6.5C1553.3,511.6,1548.9,510.9,1544.4,511z M1515.6,599.1
			c2.6-0.3,4.8-0.4,6.9-0.7c13.7-2.1,23.9-9.3,30.5-21.5c2.5-4.6,4-9.6,4.7-14.7c0.3-2.5-0.6-3.4-3.1-3.1c-0.2,0-0.5,0.1-0.7,0.1
			c-10.8,2.4-21.7,4.7-32.5,7.2c-4.4,1-8.6,2.3-12.5,4.6c-4.5,2.8-7.8,6.6-9.2,11.8c-1.9,7.1,1.7,13.5,8.8,15.3
			C1510.9,598.7,1513.5,598.8,1515.6,599.1z"/>
		<path d="M1778.8,533.3c0.8-0.6,1.4-1.1,2-1.5c14.8-12.3,29.6-24.6,44.5-36.9c2.3-1.9,4.8-3.7,7.3-5.5c3.1-2.2,6.5-3.8,10.3-4.4
			c2.3-0.4,4.7-0.3,6.9,0.5c7.3,2.7,9.4,7.9,7.7,15.1c-0.9,3.9-3.3,7.1-6.1,9.9c-2.9,2.8-5.9,5.6-9.1,8.1
			c-5.5,4.3-11.3,8.4-16.9,12.6c-1.3,1-2.7,2-3.9,3.2c-1.8,1.8-2.4,3.9-1.6,6.4c0.4,1.3,0.9,2.6,1.4,3.8
			c6.9,16.8,13.8,33.7,20.6,50.5c5.7,14.1-3.3,24.2-11.9,27.9c-6.9,3-14,1.1-18.6-5c-0.9-1.2-1.7-2.5-2.3-3.9
			c-4.8-9.6-8.5-19.6-12.1-29.7c-1.9-5.3-3.8-10.5-5.8-15.7c-0.4-1.2-0.9-2.4-1.5-3.5c-1.1-2-2.3-2.4-4.4-1.5
			c-7.7,3.4-13.8,8.5-17.6,16.2c-2,4.1-3.3,8.5-4.3,12.9c-0.7,3.3-1.2,6.6-1.9,9.9c-0.7,3.5-1.9,6.9-3.8,10
			c-4.1,6.6-10.1,10.6-17.8,11.7c-4.3,0.6-8.2-0.7-11.7-3.3c-1.9-1.4-2.9-3.3-3.6-5.5c-1.1-3.7-1-7.4-0.2-11.1
			c3-13.1,6-26.1,9.1-39.2c7.2-31.1,14.4-62.2,21.6-93.3c1.3-5.7,2.6-11.3,4.1-17c1-3.8,2.7-7.3,4.8-10.6
			c5.4-8.3,13.9-10.7,22.3-8.9c5.2,1.1,8.4,4.7,9.3,10c0.7,4.3,0.2,8.6-0.8,12.8c-4.3,18.7-8.6,37.3-12.9,56
			c-1,4.4-2.1,8.9-3.1,13.3C1778.1,529.4,1777.8,531.2,1778.8,533.3z"/>
		<path d="M945.6,564.2c-9.8,0-19.7,0-29.5,0c-2.2,0-4.3-0.2-6.5,0c-3.2,0.3-5.2,2-5.8,5.2c-2.2,11.8,2.7,27.2,20.3,29.5
			c8.7,1.1,16.8-1.1,24.5-5.1c5.4-2.7,10.2-6.3,15-9.9c2.4-1.8,4.8-3.7,7.4-5.3c4.3-2.6,8.9-3.5,13.8-2.3c5.2,1.2,7.9,5.4,6.8,10.6
			c-1.3,6.1-4.5,11.3-9.1,15.4c-12.8,11.6-27.6,19.3-44.8,21.8c-14.6,2.1-28.8,0.4-42.8-4.2c-4.6-1.5-8.8-3.8-12.6-6.8
			c-8.9-6.9-13.9-16.1-15.6-27.1c-1-6.8-0.6-13.5,0.1-20.3c1-10.3,3.3-20.3,7.3-29.9c8.3-19.6,22.4-33.7,41.2-43.3
			c11.5-5.9,23.7-8.9,36.7-8.7c9,0.2,17.8,1.7,26.2,5.1c14.8,5.9,23.2,17,26.1,32.4c1.9,9.7,0.7,19.2-3.1,28.4
			c-3.3,8-9.3,12.4-17.7,13.6c-4.9,0.7-9.9,0.8-14.8,0.9C961.1,564.4,953.3,564.2,945.6,564.2z M938.6,542.2c7.5,0,15,0,22.5,0
			c1,0,1.9-0.1,2.9-0.2c1.9-0.3,3.2-1.4,3.9-3.2c0.3-0.7,0.5-1.5,0.7-2.3c1.3-7.6-1.1-14-6-19.6c-2.1-2.5-4.9-4-8.1-4.9
			c-9.8-2.7-18.8-0.8-27.1,5c-7.5,5.3-12.5,12.4-15.9,20.9c-0.1,0.4-0.3,0.8-0.4,1.1c-0.4,1.7,0.1,2.6,1.8,2.9
			c0.9,0.2,1.9,0.3,2.9,0.3C923.4,542.2,931,542.2,938.6,542.2z"/>
		<path d="M664.4,564.2c-11,0-21.9,0-32.9,0c-1.1,0-2.2,0-3.3,0.1c-2.9,0.3-4.7,1.8-5,4.6c-0.9,8.6,0.4,16.8,6.5,23.4
			c4.1,4.5,9.5,6.6,15.6,6.9c7.1,0.5,13.8-1.2,20.2-4.1c5.1-2.3,9.7-5.3,14.1-8.6c2.8-2,5.5-4.2,8.2-6.2c3.9-3,8.3-4.8,13.3-4.6
			c0.4,0,0.8,0,1.2,0.1c5.9,0.7,8.5,3.6,8.6,9.5c0.1,4.4-1.5,8.3-4.2,11.7c-3.5,4.6-7.9,8.4-12.5,11.9
			c-10.2,7.7-21.8,12.3-34.4,14.3c-9.1,1.4-18.3,1.9-27.5,0.9c-12.9-1.4-24.6-5.7-34-15c-6.7-6.6-10.6-14.6-11.9-23.8
			c-1.9-12.9-0.3-25.5,3.4-37.9c4.6-15.6,12.4-29.3,24.2-40.7c10-9.7,22.1-15.9,35.5-19.7c8.4-2.3,16.8-3.7,25.6-3.4
			c10.3,0.4,20.1,3,29,8.3c11,6.5,17.4,16.5,20.1,28.8c2.2,9.8,1.2,19.3-2.8,28.6c-3.5,8.1-9.7,12.8-18.4,13.8
			c-6,0.7-12.1,0.8-18.2,1c-6.8,0.2-13.6,0-20.4,0C664.4,564.3,664.4,564.2,664.4,564.2z M658.3,542.3
			C658.3,542.3,658.3,542.3,658.3,542.3c8,0,16,0,24,0c3.4,0,4.5-1,5.5-4.2c3.3-11-4.2-23.8-15.4-26.4c-5.3-1.2-10.7-1.1-15.8,0.7
			c-12.3,4.2-20.3,12.9-25,24.8c-1.5,3.9-0.6,5.1,3.5,5.2C642.8,542.3,650.5,542.3,658.3,542.3z"/>
		<path d="M1085.6,573.3c1-23.7,8-45.2,25-62.5c13.1-13.4,28.8-22.2,47.4-25.4c15.1-2.6,29.9-1.3,43.9,5.1
			c17.1,7.8,26.1,21.6,26.7,40.2c0.8,24-6.4,45.7-22,64.2c-13.2,15.6-30.1,24.9-50.3,28.4c-4,0.7-8.1,1.1-12.2,1.2
			c-10,0-19.9-0.5-29.3-4.5c-16.7-7.1-26.1-19.7-28.7-37.5c-0.2-1.2-0.4-2.4-0.4-3.6C1085.6,577,1085.6,575.2,1085.6,573.3z
			 M1191.1,539.9c0-1.2,0.1-2.4,0-3.6c-0.3-4.5-1.2-8.8-3.3-12.9c-2.9-5.6-7.4-8.9-13.5-9.9c-0.6-0.1-1.1-0.2-1.7-0.3
			c-11.7-1.8-22.1,0.9-30.5,9.5c-14.1,14.3-20,31.7-18.5,51.6c0.3,4.6,1.7,8.9,4.2,12.9c2.5,4,5.9,6.9,10.6,8
			c5.3,1.3,10.6,1.5,15.9,0.5c7.6-1.5,13.9-5.1,19.1-10.8C1185,572.3,1190.5,557,1191.1,539.9z"/>
		<path d="M787.7,578.3c1.3-2,2.2-3.6,3.2-5.2c14.7-24.3,29.3-48.5,44-72.8c2.4-3.9,4.9-7.7,8.3-10.8c4-3.7,8.7-5.5,14.3-4.9
			c9.2,1.1,14.3,9.1,11.5,17.9c-0.6,1.7-1.4,3.4-2.4,5c-7.4,11.9-14.7,23.7-22.3,35.5c-13.9,21.8-27.8,43.6-41.9,65.3
			c-2.1,3.3-4.6,6.4-7.3,9.1c-6.5,6.5-14.6,8.2-23.5,6.3c-5.4-1.1-9.1-4.3-10.8-9.5c-1.1-3.2-1.7-6.5-2.3-9.8
			c-3.6-19.5-7.2-39.1-10.7-58.6c-2.1-11.9-4-23.8-6-35.6c-0.8-5-0.4-9.9,2-14.4c3.6-6.8,9.4-10.5,17-11.1c1.8-0.1,3.7-0.1,5.5,0.1
			c4.4,0.4,7.5,2.7,8.8,7c0.6,2.1,1.1,4.2,1.4,6.3c2.2,15.2,4.3,30.3,6.4,45.5c1.5,10.8,2.9,21.7,4.4,32.5
			C787.3,576.7,787.5,577.2,787.7,578.3z"/>
		<path d="M1676.3,500.7c2.2-2.1,4.1-3.9,6-5.7c4.8-4.5,10.3-7.8,16.7-9.4c10.4-2.6,20.1-0.6,29.2,4.9c0.8,0.5,1.6,1.1,2.3,1.7
			c4.5,3.9,5.9,8.8,4.3,14.5c-2.4,8.6-10,14.4-18.4,13.9c-2.6-0.1-5.2-0.9-7.7-1.6c-3.7-1-7.4-1.9-11.3-2.1
			c-7.1-0.4-12.9,2.3-17.6,7.6c-5.1,5.8-8.5,12.6-11.1,19.7c-3.5,9.3-5.8,18.9-8.1,28.5c-2.6,10.8-5.2,21.6-7.7,32.4
			c-0.9,3.8-2.4,7.5-4.8,10.6c-5.6,7.3-13.1,10-22,8.5c-6.3-1.1-10.2-6-10.6-12.7c-0.3-4.7,0.5-9.2,1.6-13.7
			c4.1-17.4,8.2-34.8,12.3-52.2c3-12.8,6.1-25.6,9.2-38.4c1.1-4.7,2.9-9.1,5.7-13.1c4.5-6.6,10.9-9.4,18.6-9.5
			c4.2-0.1,7.4,1.9,9.5,5.4c1.7,2.8,2.6,5.8,3.5,8.9C1675.9,499.2,1676,499.7,1676.3,500.7z"/>
		<path d="M1072.8,434.8c0.7,0.1,1.9,0.1,3.2,0.3c8.9,1.6,11.9,9,11.2,15.9c-0.8,8.2-3,16.1-4.9,24.1c-3.9,16.6-7.7,33.3-11.5,49.9
			c-5.9,25.5-11.8,51-17.8,76.4c-0.9,3.8-2.1,7.5-4,11c-4.7,8.5-13,12.9-22.5,11.8c-5.5-0.7-9.2-3.7-11-9c-1.2-3.7-1-7.4-0.2-11.1
			c4.2-18.5,8.5-37,12.8-55.5c7.1-30.8,14.3-61.7,21.5-92.5c1.1-4.7,2.8-9.2,5.8-13C1059.7,437.6,1065.2,434.8,1072.8,434.8z"/>
	</g>
</g>
</svg>
