<?xml version="1.0" encoding="UTF-8"?>
<!DOCTYPE svg PUBLIC "-//W3C//DTD SVG 1.1//EN" "http://www.w3.org/Graphics/SVG/1.1/DTD/svg11.dtd">
<svg version="1.1" xmlns="http://www.w3.org/2000/svg" xmlns:xlink="http://www.w3.org/1999/xlink" x="0" y="0" width="93.6" height="93.6" viewBox="0, 0, 260, 260">
  <g id="Layer_1">
    <path d="M130,260 C58.203,260 0,201.797 0,130 C0,58.203 58.203,0 130,0 C201.797,0 260,58.203 260,130 C260,201.797 201.797,260 130,260 z" fill="#EB3081"/>
    <path d="M138.653,20.191 C139.326,20.345 140,20.498 140.673,20.652 C152.34,23.186 158.623,31.943 160.269,40.315 C162.587,52.374 155.706,64.357 144.263,68.044 C143.216,68.351 142.169,68.658 141.196,69.042 C139.252,69.81 137.98,71.347 137.531,73.497 C137.232,74.957 137.083,76.416 136.933,77.875 C136.036,85.633 135.138,93.314 134.166,101.072 C133.941,102.762 133.717,104.452 133.418,106.142 C133.193,107.371 133.567,108.292 134.614,108.907 C137.531,110.597 139.85,112.978 142.094,115.436 C143.216,116.665 144.338,117.817 145.459,118.969 C146.806,120.352 148.451,121.043 150.321,120.966 C154.659,120.889 159.072,120.736 163.41,120.659 C165.953,120.582 167.898,119.43 169.019,117.049 C169.917,115.128 170.814,113.131 171.637,111.211 C174.105,105.604 177.396,100.611 182.108,96.771 C187.045,92.7 192.729,90.549 199.012,89.781 C204.621,89.09 210.156,89.397 215.541,91.087 C224.367,93.775 230.649,99.69 235.062,107.908 C238.054,113.439 239.774,119.276 239.699,125.651 C239.699,128.647 239.325,131.566 238.278,134.331 C233.566,147.619 225.04,156.836 211.053,159.602 C196.244,162.52 180.313,155.607 173.133,141.628 C172.46,140.399 172.011,139.016 171.413,137.787 C170.74,136.405 169.992,134.945 169.094,133.64 C167.748,131.719 165.803,130.798 163.485,130.875 C160.194,130.951 156.903,131.182 153.612,131.489 C152.49,131.566 151.368,131.95 150.321,132.334 C148.451,133.025 147.03,134.485 146.432,136.405 C145.609,139.093 144.936,141.782 144.338,144.547 C144.038,145.853 144.861,146.851 145.609,147.85 C148.601,151.69 151.518,155.531 154.509,159.448 C157.127,162.904 159.745,166.284 162.213,169.817 C164.008,172.429 166.402,173.351 169.393,172.967 C172.535,172.583 175.601,172.506 178.668,173.351 C191.906,176.961 196.693,194.013 187.344,204.459 C182.183,210.22 175.676,212.14 168.421,210.066 C161.017,207.915 156.08,203.076 154.435,195.088 C153.762,191.708 154.21,188.405 155.407,185.179 C155.631,184.642 155.856,184.027 156.08,183.49 C156.978,181.108 156.604,178.881 155.108,176.884 C154.958,176.653 154.809,176.5 154.659,176.269 C149.798,169.817 144.861,163.442 140,156.99 C139.7,156.529 139.326,156.068 139.027,155.684 C136.858,153.073 134.914,152.612 131.847,153.918 C126.462,156.299 121.152,155.991 115.841,153.687 C114.719,153.226 113.597,152.765 112.476,152.381 C111.055,151.921 109.708,152.228 108.586,153.15 C107.913,153.687 107.315,154.302 106.791,154.916 C105.295,156.76 105.221,158.296 106.417,160.293 C106.716,160.907 107.09,161.445 107.539,161.983 C119.955,180.187 114.345,204.612 95.348,215.366 C76.425,226.042 53.987,218.054 44.638,200.695 C42.319,196.394 40.898,191.785 40.375,186.946 C40.225,185.717 39.926,184.565 39.702,183.413 C39.702,183.029 39.702,182.645 39.702,182.337 C40.001,180.724 40.225,179.111 40.524,177.498 C43.74,156.99 64.159,142.55 84.054,146.774 C87.42,147.466 90.785,148.387 93.852,150.154 C95.273,150.922 96.021,150.845 96.919,149.847 C98.265,148.387 99.536,146.851 100.883,145.315 C102.304,143.625 102.752,141.782 102.005,139.708 C100.808,136.482 100.359,133.179 100.733,129.799 C100.808,129.338 100.733,128.801 100.733,128.34 C100.658,125.114 99.985,124.269 96.993,123.347 C92.581,122.041 88.168,120.812 83.68,119.583 C79.043,118.278 74.78,119.199 71.115,122.349 C70.89,122.579 70.666,122.733 70.442,122.963 C65.58,127.111 60.12,128.186 54.137,126.42 C44.563,123.654 38.58,113.899 40.524,104.375 C42.394,95.235 49.5,89.781 57.203,88.936 C67.076,87.861 74.256,93.852 76.949,101.226 C77.248,102.071 77.547,102.916 77.921,103.76 C79.118,106.372 81.137,107.985 83.904,108.523 C85.4,108.83 86.821,109.137 88.243,109.521 C91.982,110.443 95.647,111.442 99.387,112.286 C103.276,113.208 107.09,113.362 110.83,111.672 C113.897,110.289 116.888,108.753 119.88,107.294 C121.376,106.526 122.199,105.22 122.573,103.607 C122.722,102.916 122.797,102.147 122.947,101.456 C124.218,91.624 125.34,81.716 126.686,71.961 C127.06,69.426 126.312,67.89 124.293,66.584 C122.498,65.432 120.778,64.203 119.282,62.744 C114.121,57.828 111.354,51.683 111.578,44.386 C111.952,33.479 120.105,23.647 130.426,21.189 C131.548,20.959 132.595,20.729 133.717,20.498 C135.512,20.191 137.083,20.191 138.653,20.191 z" fill="#FFFFFF"/>
  </g>
</svg>
